HIERARCHY
ROOT hip
{
  OFFSET 0 0 0
  CHANNELS 6 Xposition Yposition Zposition Zrotation Yrotation Xrotation
  JOINT abdomen
  {
    OFFSET 0 20.6881 -0.73152
    CHANNELS 3 Zrotation Xrotation Yrotation
    JOINT chest
    {
      OFFSET 0 11.7043 -0.48768
      CHANNELS 3 Zrotation Xrotation Yrotation
      JOINT neck
      {
        OFFSET 0 22.1894 -2.19456
        CHANNELS 3 Zrotation Xrotation Yrotation
        JOINT head
        {
          OFFSET -0.24384 7.07133 1.2192
          CHANNELS 3 Zrotation Xrotation Yrotation
          JOINT leftEye
          {
            OFFSET 4.14528 8.04674 8.04672
            CHANNELS 3 Zrotation Xrotation Yrotation
            End Site
            {
              OFFSET 1 0 0
            }
          }
          JOINT rightEye
          {
            OFFSET -3.6576 8.04674 8.04672
            CHANNELS 3 Zrotation Xrotation Yrotation
            End Site
            {
              OFFSET 1 0 0
            }
          }
        }
      }
      JOINT rCollar
      {
        OFFSET -2.68224 19.2634 -4.8768
        CHANNELS 3 Zrotation Xrotation Yrotation
        JOINT rShldr
        {
          OFFSET -8.77824 -1.95073 1.46304
          CHANNELS 3 Zrotation Xrotation Yrotation
          JOINT rForeArm
          {
            OFFSET -28.1742 -1.7115 0.48768
            CHANNELS 3 Zrotation Xrotation Yrotation
            JOINT rHand
            {
              OFFSET -22.5879 0.773209 7.07136
              CHANNELS 3 Zrotation Xrotation Yrotation
              JOINT rThumb1
              {
                OFFSET -1.2192 -0.487915 3.41376
                CHANNELS 3 Zrotation Xrotation Yrotation
                JOINT rThumb2
                {
                  OFFSET -3.37035 -0.52449 3.41376
                  CHANNELS 3 Zrotation Xrotation Yrotation
                  End Site
                  {
                    OFFSET -1.78271 -1.18214 1.43049
                  }
                }
              }
              JOINT rIndex1
              {
                OFFSET -7.75947 0.938293 5.60832
                CHANNELS 3 Zrotation Xrotation Yrotation
                JOINT rIndex2
                {
                  OFFSET -2.54057 -0.884171 1.56538
                  CHANNELS 3 Zrotation Xrotation Yrotation
                  End Site
                  {
                    OFFSET -1.62519 -0.234802 1.16502
                  }
                }
              }
              JOINT rMid1
              {
                OFFSET -8.24714 1.18213 3.41376
                CHANNELS 3 Zrotation Xrotation Yrotation
                JOINT rMid2
                {
                  OFFSET -3.10165 -0.590103 1.0647
                  CHANNELS 3 Zrotation Xrotation Yrotation
                  End Site
                  {
                    OFFSET -2.48547 -0.328903 0.83742
                  }
                }
              }
              JOINT rRing1
              {
                OFFSET -8.82822 0.546677 1.51678
                CHANNELS 3 Zrotation Xrotation Yrotation
                JOINT rRing2
                {
                  OFFSET -2.60934 -0.819778 -0.0198488
                  CHANNELS 3 Zrotation Xrotation Yrotation
                  End Site
                  {
                    OFFSET -2.33842 -0.294052 0.168128
                  }
                }
              }
              JOINT rPinky1
              {
                OFFSET -8.27202 -0.0477905 -0.4584
                CHANNELS 3 Zrotation Xrotation Yrotation
                JOINT rPinky2
                {
                  OFFSET -1.82734 -0.647385 -0.700984
                  CHANNELS 3 Zrotation Xrotation Yrotation
                  End Site
                  {
                    OFFSET -1.69225 -0.51767 -0.607171
                  }
                }
              }
            }
          }
        }
      }
      JOINT lCollar
      {
        OFFSET 2.68224 19.2634 -4.8768
        CHANNELS 3 Zrotation Xrotation Yrotation
        JOINT lShldr
        {
          OFFSET 8.77824 -1.95073 1.46304
          CHANNELS 3 Zrotation Xrotation Yrotation
          JOINT lForeArm
          {
            OFFSET 28.1742 -1.7115 0.48768
            CHANNELS 3 Zrotation Xrotation Yrotation
            JOINT lHand
            {
              OFFSET 22.5879 0.773209 7.07136
              CHANNELS 3 Zrotation Xrotation Yrotation
              JOINT lThumb1
              {
                OFFSET 1.2192 -0.487915 3.41376
                CHANNELS 3 Zrotation Xrotation Yrotation
                JOINT lThumb2
                {
                  OFFSET 3.37035 -0.52449 3.41376
                  CHANNELS 3 Zrotation Xrotation Yrotation
                  End Site
                  {
                    OFFSET 1.78271 -1.18214 1.43049
                  }
                }
              }
              JOINT lIndex1
              {
                OFFSET 7.75947 0.938293 5.60832
                CHANNELS 3 Zrotation Xrotation Yrotation
                JOINT lIndex2
                {
                  OFFSET 2.54057 -0.884171 1.56538
                  CHANNELS 3 Zrotation Xrotation Yrotation
                  End Site
                  {
                    OFFSET 1.62519 -0.234802 1.16502
                  }
                }
              }
              JOINT lMid1
              {
                OFFSET 8.24714 1.18213 3.41376
                CHANNELS 3 Zrotation Xrotation Yrotation
                JOINT lMid2
                {
                  OFFSET 3.10165 -0.590103 1.0647
                  CHANNELS 3 Zrotation Xrotation Yrotation
                  End Site
                  {
                    OFFSET 2.48547 -0.328903 0.83742
                  }
                }
              }
              JOINT lRing1
              {
                OFFSET 8.82822 0.546677 1.51678
                CHANNELS 3 Zrotation Xrotation Yrotation
                JOINT lRing2
                {
                  OFFSET 2.60934 -0.819778 -0.0198488
                  CHANNELS 3 Zrotation Xrotation Yrotation
                  End Site
                  {
                    OFFSET 2.33842 -0.294052 0.168128
                  }
                }
              }
              JOINT lPinky1
              {
                OFFSET 8.27202 -0.0477905 -0.4584
                CHANNELS 3 Zrotation Xrotation Yrotation
                JOINT lPinky2
                {
                  OFFSET 1.82734 -0.647385 -0.700984
                  CHANNELS 3 Zrotation Xrotation Yrotation
                  End Site
                  {
                    OFFSET 1.69225 -0.51767 -0.607171
                  }
                }
              }
            }
          }
        }
      }
    }
  }
  JOINT rButtock
  {
    OFFSET -8.77824 4.35084 1.2192
    CHANNELS 3 Zrotation Xrotation Yrotation
    JOINT rThigh
    {
      OFFSET 0 -1.70687 -2.19456
      CHANNELS 3 Zrotation Xrotation Yrotation
      JOINT rShin
      {
        OFFSET 0 -36.8199 0.73152
        CHANNELS 3 Zrotation Xrotation Yrotation
        JOINT rFoot
        {
          OFFSET 0.73152 -45.1104 -5.12064
          CHANNELS 3 Zrotation Xrotation Yrotation
          End Site
          {
            OFFSET -1.1221 -3.69964 12.103
          }
        }
      }
    }
  }
  JOINT lButtock
  {
    OFFSET 8.77824 4.35084 1.2192
    CHANNELS 3 Zrotation Xrotation Yrotation
    JOINT lThigh
    {
      OFFSET 0 -1.70687 -2.19456
      CHANNELS 3 Zrotation Xrotation Yrotation
      JOINT lShin
      {
        OFFSET 0 -36.8199 0.73152
        CHANNELS 3 Zrotation Xrotation Yrotation
        JOINT lFoot
        {
          OFFSET -0.73152 -45.1104 -5.12064
          CHANNELS 3 Zrotation Xrotation Yrotation
          End Site
          {
            OFFSET 1.1221 -3.69964 12.103
          }
        }
      }
    }
  }
}
MOTION
Frames:	8
Frame Time:	0.00833333
70.3043 84.9514 -116.198 0.0 0.0 0.0 -0.0821265 -0.00059841 -0.0023524 -0.0226699 -0.000955173 -0.00392725 -4.54865e-16 7.95139e-16 -2.48481e-17 -1.36354e-15 9.54166e-15 -7.92033e-17 -0.0 0.0 0.0 -0.0 0.0 0.0 -2.00122e-16 -7.76503e-19 4.96962e-17 -2.40881e-15 -3.54085e-16 9.93923e-16 -7.82715e-14 2.34566e-14 -6.36111e-15 -9.35617e-13 -3.18552e-14 -4.13472e-14 -2.20086e-12 -1.46848e-14 -1.17681e-13 -3.81309e-12 -1.90833e-14 -2.16278e-13 -2.19617e-12 -1.19271e-14 -1.24042e-13 7.73091 5.47488 0.417314 -2.20129e-12 -1.50082e-14 -1.145e-13 2.90554 0.965183 0.102902 -2.19021e-12 -1.45113e-14 -1.24042e-13 10.2786 0.731801 0.0259123 -2.19975e-12 -1.31198e-14 -1.27222e-13 2.22167 -0.733487 -0.20892 -1.97463e-16 -3.88251e-19 -4.96962e-17 -7.14091e-15 -6.64686e-16 -1.39149e-15 -8.60241e-14 -2.64384e-14 -6.36111e-15 -9.27598e-13 1.13556e-14 -6.04305e-14 -2.19779e-12 -2.66492e-14 -1.33583e-13 -3.78566e-12 -4.13472e-14 -2.15483e-13 -2.2073e-12 -2.42517e-14 -1.24042e-13 -7.73091 5.47488 -0.417314 -2.19915e-12 -2.60408e-14 -1.27222e-13 -2.90554 0.965183 -0.102902 -2.20771e-12 -2.59414e-14 -1.21656e-13 -10.2786 0.731801 -0.0259123 -2.19776e-12 -2.54444e-14 -1.24042e-13 -2.22167 -0.733487 0.20892 -2.03217e-16 0.0 -3.88251e-19 0.419494 -2.96758 -0.0374302 -0.00606574 -0.17734 -0.0534188 -0.481442 3.14428 0.118504 2.03217e-16 0.0 3.88251e-19 -0.544794 -3.29622 0.0452332 0.00510413 0.417967 0.0447121 0.482739 2.87763 -0.113282
69.3512 83.2601 -118.732 -0.076 -20.5154 9.5715 0.503462 -0.604686 -1.51654 -0.185733 -3.14803 -0.467857 4.08718 7.68733 1.7571 -10.0706 -14.1765 -0.0682805 -0.0 0.0 0.0 -0.0 0.0 0.0 -4.21633e-14 -7.7173e-14 -8.93164e-14 5.64158 -5.05802 0.384467 -5.80566 -3.05534 8.5693 0.117777 7.62523 1.0377 4.93845e-10 -2.42552e-10 -1.35242e-09 8.22298e-10 -4.19365e-10 -2.34901e-09 4.93849e-10 -2.4255e-10 -1.35243e-09 7.73091 5.47488 0.417314 4.93844e-10 -2.42552e-10 -1.35242e-09 2.90554 0.965183 0.102902 4.93853e-10 -2.42552e-10 -1.35242e-09 10.2786 0.731801 0.0259123 4.93845e-10 -2.4255e-10 -1.35242e-09 2.22167 -0.733487 -0.20892 -4.21584e-14 -7.71715e-14 -8.94271e-14 -4.05693 0.454923 0.286995 4.87412 -2.36265 -7.44549 -0.00829356 -2.0465 0.286987 -1.32538e-09 -2.0057e-09 -1.42307e-09 -2.28559e-09 -3.44232e-09 -2.4686e-09 -1.32538e-09 -2.0057e-09 -1.42305e-09 -7.73091 5.47488 -0.417314 -1.32538e-09 -2.0057e-09 -1.42306e-09 -2.90554 0.965183 -0.102902 -1.32539e-09 -2.0057e-09 -1.42306e-09 -10.2786 0.731801 -0.0259123 -1.32538e-09 -2.0057e-09 -1.42306e-09 -2.22167 -0.733487 0.20892 -2.03217e-16 0.0 -3.88251e-19 0.341708 -6.61008 -2.02228 -0.00576061 6.36685 0.0424997 -0.297381 -0.853631 2.27088 2.03217e-16 0.0 3.88251e-19 -0.301939 -6.74511 -0.504163 -0.00375805 6.2968 -0.0557025 0.604903 -0.729562 1.71358
69.32 83.3199 -118.689 -0.1011 -20.6723 9.3608 1.0897 -1.25649 -3.11522 -0.418889 -6.48777 -0.962911 7.90205 15.7898 3.71854 -20.7682 -29.1581 -0.162069 -0.0 0.0 0.0 -0.0 0.0 0.0 -8.96718e-14 -1.66831e-13 -1.87379e-13 11.6006 -10.4324 0.780507 -10.9754 -6.07047 17.7275 -0.068543 15.6769 2.19749 1.04828e-09 -5.17466e-10 -2.84205e-09 1.74609e-09 -8.94668e-10 -4.93655e-09 1.04828e-09 -5.17465e-10 -2.84205e-09 7.73091 5.47488 0.417314 1.04828e-09 -5.17466e-10 -2.84205e-09 2.90554 0.965183 0.102902 1.04828e-09 -5.17466e-10 -2.84205e-09 10.2786 0.731801 0.0259123 1.04828e-09 -5.17464e-10 -2.84204e-09 2.22167 -0.733487 -0.20892 -8.96627e-14 -1.66829e-13 -1.87501e-13 -8.22927 0.912552 0.578102 9.36466 -4.72701 -15.3562 0.00534531 -4.17204 0.586316 -2.81234e-09 -4.30903e-09 -2.9936e-09 -4.84998e-09 -7.3966e-09 -5.19316e-09 -2.81234e-09 -4.30903e-09 -2.99358e-09 -7.73091 5.47488 -0.417314 -2.81234e-09 -4.30903e-09 -2.99359e-09 -2.90554 0.965183 -0.102902 -2.81235e-09 -4.30903e-09 -2.99359e-09 -10.2786 0.731801 -0.0259123 -2.81233e-09 -4.30903e-09 -2.99359e-09 -2.22167 -0.733487 0.20892 -2.03217e-16 0.0 -3.88251e-19 -0.0123798 -10.4589 -4.16928 -0.0297354 13.2799 0.14723 0.224867 -5.07548 4.56123 2.03217e-16 0.0 3.88251e-19 -0.111404 -10.4136 -1.09601 0.00974312 12.5166 -0.165262 0.985036 -4.5487 3.65255
69.2711 83.3802 -118.64 -0.1812 -20.8768 9.1102 1.57892 -1.80779 -4.54692 -0.666525 -9.43967 -1.41273 10.7458 22.9714 5.67526 -30.3438 -42.5293 -0.2695 -0.0 0.0 0.0 -0.0 0.0 0.0 -1.2609e-13 -2.31517e-13 -2.68049e-13 17.1346 -15.1713 1.1904 -14.7533 -8.34748 25.9663 -0.534771 22.8444 3.34846 1.48594e-09 -7.27626e-10 -4.05703e-09 2.47452e-09 -1.25806e-09 -7.0466e-09 1.48594e-09 -7.27626e-10 -4.05703e-09 7.73091 5.47488 0.417314 1.48594e-09 -7.27626e-10 -4.05703e-09 2.90554 0.965183 0.102902 1.48594e-09 -7.27626e-10 -4.05703e-09 10.2786 0.731801 0.0259123 1.48593e-09 -7.27624e-10 -4.05702e-09 2.22167 -0.733487 -0.20892 -1.2608e-13 -2.31514e-13 -2.68182e-13 -12.1845 1.36463 0.861201 12.8219 -6.61022 -22.4749 0.0369227 -6.13887 0.865375 -3.97174e-09 -6.01706e-09 -4.26893e-09 -6.84921e-09 -1.03269e-08 -7.40538e-09 -3.97174e-09 -6.01706e-09 -4.26891e-09 -7.73091 5.47488 -0.417314 -3.97174e-09 -6.01706e-09 -4.26893e-09 -2.90554 0.965183 -0.102902 -3.97175e-09 -6.01706e-09 -4.26892e-09 -10.2786 0.731801 -0.0259123 -3.97173e-09 -6.01706e-09 -4.26892e-09 -2.22167 -0.733487 0.20892 -2.03217e-16 0.0 -3.88251e-19 -0.589829 -13.8309 -6.13014 -0.0738409 19.4551 0.247692 0.977786 -8.79279 6.65377 2.03217e-16 0.0 3.88251e-19 -0.0198319 -13.6383 -1.63855 0.0428293 18.0543 -0.268754 1.54296 -7.90989 5.4183
69.1902 83.436 -118.593 -0.3721 -21.1766 8.861 1.89661 -2.11288 -5.55907 -0.839485 -11.4244 -1.73295 12.2596 27.9353 7.23998 -36.9944 -51.8749 -0.34019 -0.0 0.0 0.0 -0.0 0.0 0.0 -1.34781e-13 -2.33773e-13 -3.05234e-13 21.4717 -18.3236 1.60321 -16.9268 -9.57764 31.6547 -1.05467 27.8307 4.25498 1.63165e-09 -7.75901e-10 -4.58539e-09 2.71453e-09 -1.34167e-09 -7.96293e-09 1.63165e-09 -7.75902e-10 -4.5854e-09 7.73091 5.47488 0.417314 1.63165e-09 -7.75901e-10 -4.5854e-09 2.90554 0.965183 0.102902 1.63165e-09 -7.75902e-10 -4.58539e-09 10.2786 0.731801 0.0259123 1.63164e-09 -7.75899e-10 -4.58538e-09 2.22167 -0.733487 -0.20892 -1.3478e-13 -2.33768e-13 -3.05383e-13 -15.5894 1.80292 1.12416 14.948 -7.74546 -27.4818 0.0734558 -7.70947 1.09015 -4.31225e-09 -6.23683e-09 -4.80628e-09 -7.43553e-09 -1.06971e-08 -8.33675e-09 -4.31224e-09 -6.23682e-09 -4.80625e-09 -7.73091 5.47488 -0.417314 -4.31224e-09 -6.23682e-09 -4.80627e-09 -2.90554 0.965183 -0.102902 -4.31225e-09 -6.23682e-09 -4.80627e-09 -10.2786 0.731801 -0.0259123 -4.31224e-09 -6.23683e-09 -4.80627e-09 -2.22167 -0.733487 0.20892 -2.03217e-16 0.0 -3.88251e-19 -1.16128 -16.0709 -7.5003 -0.118989 23.7858 0.324364 1.66292 -11.3055 8.16466 2.03217e-16 0.0 3.88251e-19 -0.0276583 -15.7574 -2.02562 0.0783446 21.8871 -0.345129 2.05184 -10.1611 6.69253
69.1378 83.4853 -118.536 -0.4231 -21.4296 8.5686 2.00067 -2.08428 -5.97965 -0.841408 -12.0414 -1.8577 12.4157 29.8836 7.96335 -39.3899 -55.6241 -0.256819 -0.0 0.0 0.0 -0.0 0.0 0.0 -1.00502e-13 -1.31675e-13 -2.89889e-13 24.1015 -19.1984 2.01781 -17.5849 -9.87014 33.6207 -1.3052 29.7484 4.63506 1.37506e-09 -5.56175e-10 -4.20659e-09 2.28058e-09 -9.61928e-10 -7.30152e-09 1.37507e-09 -5.56176e-10 -4.20659e-09 7.73091 5.47488 0.417314 1.37506e-09 -5.56175e-10 -4.20659e-09 2.90554 0.965183 0.102902 1.37507e-09 -5.56175e-10 -4.20659e-09 10.2786 0.731801 0.0259123 1.37506e-09 -5.56172e-10 -4.20658e-09 2.22167 -0.733487 -0.20892 -1.00526e-13 -1.3167e-13 -2.90062e-13 -18.2843 2.21307 1.363 15.7225 -8.14349 -29.4548 0.100402 -8.78102 1.24437 -3.3665e-09 -3.91546e-09 -4.36696e-09 -5.80119e-09 -6.68954e-09 -7.57234e-09 -3.3665e-09 -3.91545e-09 -4.36694e-09 -7.73091 5.47488 -0.417314 -3.3665e-09 -3.91545e-09 -4.36695e-09 -2.90554 0.965183 -0.102902 -3.3665e-09 -3.91545e-09 -4.36695e-09 -10.2786 0.731801 -0.0259123 -3.36649e-09 -3.91546e-09 -4.36695e-09 -2.22167 -0.733487 0.20892 -2.03217e-16 0.0 -3.88251e-19 -1.47066 -16.7701 -7.94827 -0.140952 25.5454 0.357313 1.96042 -12.1501 8.80811 2.03217e-16 0.0 3.88251e-19 -0.114298 -16.322 -2.17892 0.0946518 23.3237 -0.374086 2.26966 -10.8673 7.24594
69.1454 83.5311 -118.456 -0.205 -21.5524 8.1846 1.95782 -1.81782 -5.97766 -0.7106 -11.6827 -1.83983 11.7655 29.6985 7.98669 -38.7304 -55.3736 -0.0457189 -0.0 0.0 0.0 -0.0 0.0 0.0 -3.57293e-14 4.41525e-14 -2.36625e-13 25.4768 -18.4497 2.4202 -17.298 -9.62972 32.9059 -1.27104 29.4834 4.58213 8.30818e-10 -1.46988e-10 -3.17722e-09 1.36478e-09 -2.54641e-10 -5.5087e-09 8.30821e-10 -1.4699e-10 -3.17723e-09 7.73091 5.47488 0.417314 8.30819e-10 -1.46989e-10 -3.17723e-09 2.90554 0.965183 0.102902 8.30823e-10 -1.46988e-10 -3.17723e-09 10.2786 0.731801 0.0259123 8.30812e-10 -1.46985e-10 -3.17722e-09 2.22167 -0.733487 -0.20892 -3.5789e-14 4.41575e-14 -2.36827e-13 -20.4694 2.60352 1.58447 15.6419 -8.10399 -29.2436 0.116183 -9.49357 1.34708 -1.50865e-09 1.99217e-10 -3.22733e-09 -2.59221e-09 4.07322e-10 -5.592e-09 -1.50865e-09 1.99227e-10 -3.22732e-09 -7.73091 5.47488 -0.417314 -1.50865e-09 1.99225e-10 -3.22733e-09 -2.90554 0.965183 -0.102902 -1.50866e-09 1.99224e-10 -3.22733e-09 -10.2786 0.731801 -0.0259123 -1.50865e-09 1.99222e-10 -3.22733e-09 -2.22167 -0.733487 0.20892 -2.03217e-16 0.0 -3.88251e-19 -1.53813 -16.3789 -7.7184 -0.139819 25.4681 0.35558 1.91189 -11.8171 8.81086 2.03217e-16 0.0 3.88251e-19 -0.242003 -15.7773 -2.1599 0.0916306 23.0492 -0.366425 2.22736 -10.4788 7.27024
69.1432 83.5874 -118.376 -0.0436 -21.6469 7.7988 1.86136 -1.44398 -5.81138 -0.553273 -10.9581 -1.76907 10.9165 28.6251 7.71417 -36.9752 -53.4607 0.158881 -0.0 0.0 0.0 -0.0 0.0 0.0 3.45986e-14 2.22353e-13 -1.54837e-13 26.2709 -17.1442 2.77633 -16.6286 -9.1734 31.1618 -1.12957 28.4065 4.36803 1.61227e-10 2.71801e-10 -1.8011e-09 2.40486e-10 4.69024e-10 -3.11379e-09 1.6123e-10 2.718e-10 -1.80111e-09 7.73091 5.47488 0.417314 1.61228e-10 2.718e-10 -1.80111e-09 2.90554 0.965183 0.102902 1.61236e-10 2.71802e-10 -1.80111e-09 10.2786 0.731801 0.0259123 1.6122e-10 2.71805e-10 -1.8011e-09 2.22167 -0.733487 -0.20892 3.45026e-14 2.22358e-13 -1.55067e-13 -22.3516 3.0002 1.79251 15.222 -7.89173 -28.1642 0.124922 -9.97399 1.41632 4.90352e-10 4.2991e-09 -1.71715e-09 8.58447e-10 7.4697e-09 -2.96948e-09 4.90349e-10 4.29911e-09 -1.71714e-09 -7.73091 5.47488 -0.417314 4.90356e-10 4.29911e-09 -1.71714e-09 -2.90554 0.965183 -0.102902 4.90349e-10 4.29911e-09 -1.71714e-09 -10.2786 0.731801 -0.0259123 4.90359e-10 4.29911e-09 -1.71715e-09 -2.22167 -0.733487 0.20892 -2.03217e-16 0.0 -3.88251e-19 -1.51039 -15.5439 -7.24446 -0.129228 24.6384 0.339662 1.72488 -11.0516 8.5322 2.03217e-16 0.0 3.88251e-19 -0.375601 -14.8047 -2.06546 0.0808531 22.1054 -0.344691 2.08028 -9.68067 7.06065
